<?xml version="1.0" encoding="UTF-8" standalone="no"?>
<!DOCTYPE svg PUBLIC "-//W3C//DTD SVG 20010904//EN" "http://www.w3.org/TR/2001/REC-SVG-20010904/DTD/svg10.dtd">
<svg xmlns="http://www.w3.org/2000/svg" viewBox="0 0 48 48">
	<path fill="#333" d="M 5.00,3.50 C 5.00,3.50 4.70,4.70 4.70,4.70 5.50,5.57 6.29,6.73 7.05,8.20 7.82,9.67 8.20,10.94 8.20,12.00 8.20,16.73 7.98,21.50 7.55,26.30 7.12,31.10 6.91,34.92 6.91,37.75 6.91,40.59 7.66,42.87 9.16,44.61 10.66,46.34 12.80,47.20 15.59,47.20 20.06,47.20 24.46,45.16 28.80,41.06 33.13,36.96 36.59,31.98 39.19,26.11 41.79,20.23 43.09,14.67 43.09,9.41 43.09,7.34 42.36,5.53 40.89,4.00 39.43,2.47 37.27,1.70 34.41,1.70 34.41,1.70 33.00,3.00 33.00,3.00 32.00,3.94 30.93,5.57 29.80,7.91 28.66,10.24 27.96,12.84 27.70,15.70 27.70,15.70 34.50,23.30 34.50,23.30 34.36,25.83 32.78,28.98 29.75,32.75 26.72,36.52 23.94,38.41 21.41,38.41 20.33,38.41 19.80,37.07 19.80,34.41 19.80,33.07 20.39,29.32 21.59,23.16 22.80,16.99 23.41,12.91 23.41,10.91 23.41,7.17 22.69,4.70 21.25,3.50 19.81,2.30 17.64,1.70 14.75,1.70 11.85,1.70 8.60,2.30 5.00,3.50 Z" />
</svg>
