<svg xmlns="http://www.w3.org/2000/svg" viewBox="0 0 48 48">
	<style>
		circle {
		fill: #333;
		}
		@media (prefers-color-scheme: dark) {
		path {
		fill: #ddd;
		}
		}
	</style>
	<path fill="#333" d="M 12.92,12.80 C 12.92,12.80 12.73,13.56 12.73,13.56 13.24,14.12 13.74,14.88 14.23,15.81 14.72,16.75 14.97,17.56 14.97,18.23 14.97,21.27 14.83,24.32 14.55,27.39 14.27,30.46 14.14,32.91 14.14,34.72 14.14,36.53 14.62,38.00 15.58,39.11 16.54,40.21 17.91,40.77 19.70,40.77 22.55,40.77 25.37,39.45 28.14,36.83 30.92,34.20 33.14,31.02 34.80,27.27 36.46,23.51 37.30,19.95 37.30,16.58 37.30,15.26 36.83,14.11 35.89,13.12 34.95,12.14 33.57,11.64 31.73,11.64 31.73,11.64 30.84,12.48 30.84,12.48 30.20,13.08 29.51,14.12 28.78,15.62 28.06,17.12 27.62,18.78 27.45,20.61 27.45,20.61 31.80,25.47 31.80,25.47 31.71,27.09 30.70,29.12 28.75,31.53 26.81,33.94 25.04,35.14 23.42,35.14 22.73,35.14 22.39,34.29 22.39,32.58 22.39,31.73 22.77,29.32 23.55,25.38 24.32,21.43 24.70,18.81 24.70,17.53 24.70,15.15 24.24,13.57 23.31,12.80 22.39,12.03 21.01,11.64 19.16,11.64 17.30,11.64 15.22,12.03 12.92,12.80 Z" />
</svg>
